#tb 0: 1/50
0,         18,         18,        1,   622080, 0x4440caef
0,         19,         19,        1,   622080, 0xa5cea88b
0,         20,         20,        1,   622080, 0xce67e69d
0,         21,         21,        1,   622080, 0x9a57891f
0,         22,         22,        1,   622080, 0x1dbdc653
0,         23,         23,        1,   622080, 0xc171c0c5
0,         24,         24,        1,   622080, 0x55c791d0
0,         25,         25,        1,   622080, 0x20db9890
0,         26,         26,        1,   622080, 0x8193740b
0,         27,         27,        1,   622080, 0xdb181d52
0,         28,         28,        1,   622080, 0x7125970f
0,         29,         29,        1,   622080, 0xc2b913d1
0,         30,         30,        1,   622080, 0xeb63783a
0,         31,         31,        1,   622080, 0xf1d9c5fb
0,         32,         32,        1,   622080, 0x7080590b
0,         33,         33,        1,   622080, 0xeda55774
0,         34,         34,        1,   622080, 0x13f8175b
0,         35,         35,        1,   622080, 0x01921a16
0,         36,         36,        1,   622080, 0x3e550e94
0,         37,         37,        1,   622080, 0xd5047bc9
0,         38,         38,        1,   622080, 0x7f9d66f7
0,         39,         39,        1,   622080, 0x2fc806ea
0,         40,         40,        1,   622080, 0x068eda80
0,         41,         41,        1,   622080, 0xf0e125a7
0,         42,         42,        1,   622080, 0x843997f7
0,         43,         43,        1,   622080, 0x4afe2976
0,         44,         44,        1,   622080, 0x88207ca3
0,         45,         45,        1,   622080, 0x637fcbfe
0,         46,         46,        1,   622080, 0x353eed75
0,         47,         47,        1,   622080, 0xd9a8f5ac
0,         48,         48,        1,   622080, 0xf93e92b0
0,         49,         49,        1,   622080, 0x4540039f
0,         50,         50,        1,   622080, 0xd0811094
0,         51,         51,        1,   622080, 0x3039906f
0,         52,         52,        1,   622080, 0xb04a3141
0,         53,         53,        1,   622080, 0xe62d2cfa
0,         54,         54,        1,   622080, 0x4ab84909
0,         55,         55,        1,   622080, 0x82de12ee
0,         56,         56,        1,   622080, 0x4700b8f9
0,         57,         57,        1,   622080, 0x7e849cc9
0,         58,         58,        1,   622080, 0x6305aeba
0,         59,         59,        1,   622080, 0x939bf771
0,         60,         60,        1,   622080, 0x153faa3e
0,         61,         61,        1,   622080, 0xb67f3233
0,         62,         62,        1,   622080, 0xae724063
0,         63,         63,        1,   622080, 0xed2b44b3
0,         64,         64,        1,   622080, 0xbe4fe779
0,         65,         65,        1,   622080, 0x380f8563
0,         66,         66,        1,   622080, 0x209ed8c7
0,         67,         67,        1,   622080, 0xb964d70f
0,         68,         68,        1,   622080, 0xe2bbac96
0,         69,         69,        1,   622080, 0x4f60f7f4
0,         70,         70,        1,   622080, 0xe945441e
0,         71,         71,        1,   622080, 0xded0b740
0,         72,         72,        1,   622080, 0x3590bd5d
0,         73,         73,        1,   622080, 0xb9a15294
0,         74,         74,        1,   622080, 0x8f3ef716
0,         75,         75,        1,   622080, 0x3e2301a8
0,         76,         76,        1,   622080, 0x0109f125
0,         77,         77,        1,   622080, 0x5252371e
0,         78,         78,        1,   622080, 0x230c373f
0,         79,         79,        1,   622080, 0x5a1ab1f1
